<?xml version="1.0" encoding="utf-8"?>
<svg viewBox="91.437 192.5997 168.4145 81.035" width="168.4145" height="81.035" xmlns="http://www.w3.org/2000/svg">
  <defs>
    <clipPath id="clippath1" transform="">
      <path d="M 0 500 L 500 500 L 500 0 L 0 0 Z" style="fill: none; clip-rule: nonzero;"/>
    </clipPath>
  </defs>
  <g style="clip-path: url(#clippath1);" transform="matrix(0.9999999999999999, 0, 0, -0.9999999999999999, 26.195892333984368, 433.9407653808593)">
    <g transform="translate(144.6123 223.9385)">
      <path d="M 0 0 C -2.607 20.41 19.743 19.526 33.796 14.062 C 59.291 4.147 60.771 -16.267 54.825 -21.25 C 54.825 -21.25 66.389 -17.39 82.963 -28.942 C 99.538 -40.495 79.225 -49.803 57.95 -48.844 C 57.95 -48.844 56.044 -75.14 21.337 -57.602 C 21.337 -57.602 -22.354 -74.016 -34.247 -51.223 C -34.247 -51.223 -94.394 -62.04 -75.806 -24.675 C -75.806 -24.675 -63.192 -7.007 -38.802 -12.214 C -38.962 -7.969 -40.498 0.961 -29.152 7.617 C -17.855 14.244 -4.057 3.664 0 0" style="fill: rgb(161, 220, 252); fill-rule: evenodd; fill-opacity: 1;"/>
    </g>
  </g>
  <g style="clip-path: url(#clippath1);" transform="matrix(0.9999999999999999, 0, 0, -0.9999999999999999, 26.195892333984368, 433.9407653808593)">
    <g transform="translate(68.8062 199.2637)">
      <path d="M 0 0 C 0 0 8.405 -38.025 52.163 -11.322 C 52.163 -11.322 68.238 -30.705 83.163 -19.822 C 83.163 -19.822 113.013 -38.947 120.913 -10.572 C 120.913 -10.572 149.959 -25.116 163.663 -9.822 C 163.663 -9.822 164.061 -10.396 164.604 -10.958 C 167.057 -19.176 150.712 -24.934 133.756 -24.169 C 133.756 -24.169 131.851 -50.465 97.143 -32.927 C 97.143 -32.927 53.453 -49.341 41.559 -26.548 C 41.559 -26.548 -18.347 -37.322 -0.108 -0.218 Z" style="fill: rgb(104, 198, 250); fill-rule: evenodd; fill-opacity: 1;"/>
    </g>
  </g>
  <g style="clip-path: url(#clippath1);" transform="matrix(0.9999999999999999, 0, 0, -0.9999999999999999, 26.195892333984368, 433.9407653808593)">
    <g transform="translate(65.2412 186.7197)">
      <path d="M 0 0 C 0.002 3.414 1.08 7.549 3.565 12.544 C 3.565 12.544 16.179 30.212 40.569 25.005 C 40.409 29.25 38.874 38.18 50.219 44.836 C 61.516 51.463 75.314 40.883 79.371 37.219 C 76.764 57.629 99.114 56.745 113.167 51.28 C 138.662 41.366 140.143 20.952 134.196 15.969 C 134.196 15.969 145.76 19.829 162.334 8.276 C 172.839 0.954 168.526 -5.466 158.541 -8.942 C 154.951 -0.709 145.562 14.993 128.759 5.862 C 128.759 5.862 134.446 32.539 106.522 41.612 C 80.892 49.941 84.207 29.529 84.207 29.529 C 84.207 29.529 53.445 54.984 44.509 14.104 C 44.509 14.104 0.25 20.498 0 0" style="fill: rgb(212, 245, 255); fill-rule: evenodd; fill-opacity: 1;"/>
    </g>
  </g>
</svg>