<?xml version="1.0" encoding="utf-8"?>
<svg viewBox="295.2613 297.4519 164.3911 82.4321" width="164.3911" height="82.4321" xmlns="http://www.w3.org/2000/svg">
  <defs>
    <clipPath id="clippath1" transform="">
      <path d="M 0 500 L 500 500 L 500 0 L 0 0 Z" style="fill: none; clip-rule: nonzero;"/>
    </clipPath>
  </defs>
  <g style="clip-path: url(#clippath1);" transform="matrix(0.9999999999999999, 0, 0, -0.9999999999999999, 26.195892333984368, 433.9407653808593)">
    <g transform="translate(270.3223 83.5664)">
      <path d="M 0 0 C 4.565 13.263 18.12 30.83 41.005 20 C 41.005 20 52.643 55.293 83.25 27.75 C 83.25 27.75 77.708 54.997 110 52.796 C 136.998 50.955 154.253 32.62 137 14.25 C 137 14.25 160.578 22.552 163 3.75 C 165.423 -15.053 134.373 -16.817 119.253 -18.667 C 119.253 -18.667 100.447 -40.66 77.5 -22 C 77.5 -22 50.263 -31.2 45 -12.667 C 45 -12.667 -10.197 -29.629 0 0" style="fill: rgb(161, 220, 252); fill-rule: evenodd; fill-opacity: 1;"/>
    </g>
  </g>
  <g style="clip-path: url(#clippath1);" transform="matrix(0.9999999999999999, 0, 0, -0.9999999999999999, 26.195892333984368, 433.9407653808593)">
    <g transform="translate(275.6875 93.6133)">
      <path d="M 0 0 C -10.84 -18.601 10.8 -24.255 40.923 -9.33 C 40.923 -9.33 56.997 -28.714 71.923 -17.83 C 71.923 -17.83 103.772 -37.082 111.673 -8.707 C 111.673 -8.707 138.043 -22.528 155.435 0.198 C 155.55 0.021 155.66 -0.161 155.765 -0.35 C 156.668 -5.985 157.232 -6.984 157.588 -5.948 C 157.605 -6.065 157.62 -6.181 157.635 -6.297 C 160.058 -25.1 129.008 -26.864 113.888 -28.714 C 113.888 -28.714 95.082 -50.707 72.135 -32.047 C 72.135 -32.047 44.897 -41.247 39.635 -22.714 C 39.635 -22.714 -15.563 -39.676 -5.365 -10.047 C -4.112 -6.405 -2.617 -3.612 0 0" style="fill: rgb(104, 198, 250); fill-rule: evenodd; fill-opacity: 1;"/>
    </g>
  </g>
  <g style="clip-path: url(#clippath1);" transform="matrix(0.9999999999999999, 0, 0, -0.9999999999999999, 26.195892333984368, 433.9407653808593)">
    <g transform="translate(275.6875 94.0322)">
      <path d="M 0 0 C 5.58 12.587 14.707 19.44 35.64 9.534 C 35.64 9.534 47.277 44.827 77.885 17.284 C 77.885 17.284 72.343 44.531 104.635 42.33 C 131.147 40.522 148.263 22.81 132.532 4.774 C 130.85 3.7 129.098 2.483 127.27 1.111 C 127.27 1.111 127.457 21.267 99.532 30.34 C 73.902 38.669 81.66 1.111 81.66 1.111 C 81.66 1.111 44.707 38.212 38.52 -0.419 C 38.52 -0.419 16.933 20.731 0 0" style="fill: rgb(212, 245, 255); fill-rule: evenodd; fill-opacity: 1;"/>
    </g>
  </g>
</svg>