<?xml version="1.0" encoding="utf-8"?>
<svg viewBox="82.5651 -21.3984 193.6311 84.7154" width="193.6311" height="84.7154" xmlns="http://www.w3.org/2000/svg">
  <defs>
    <clipPath id="clippath1" transform="">
      <path d="M 0 500 L 500 500 L 500 0 L 0 0 Z" style="fill: none; clip-rule: nonzero;"/>
    </clipPath>
  </defs>
  <g style="clip-path: url(#clippath1);" transform="matrix(0.9999999999999999, 0, 0, -0.9999999999999999, 26.195892333984368, 433.9407653808593)">
    <g transform="translate(82.6255 394.395)">
      <path d="M 0 0 C 0 0 -6.3 27.19 12.659 28.3 C 31.618 29.413 38.813 19.833 38.813 19.833 C 38.813 19.833 29.567 41.667 58.493 30.845 C 58.493 30.845 62.045 62.02 102.558 60.915 C 143.071 59.81 133.867 12.138 133.867 12.138 C 133.867 12.138 154.07 19.44 166.639 -6.105 C 172 -17 146.958 -17.65 127.474 -16.96 C 127.474 -16.96 96.792 -32.337 75.068 -16.882 C 75.068 -16.882 36.021 -27.63 1.15 -11.97 C 1.15 -11.97 -11.851 -17.525 -22.786 -11.97 C -33.721 -6.413 -16.8 8.283 0 0" style="fill: rgb(161, 220, 252); fill-rule: evenodd; fill-opacity: 1;"/>
    </g>
  </g>
  <g style="clip-path: url(#clippath1);" transform="matrix(0.9999999999999999, 0, 0, -0.9999999999999999, 26.195892333984368, 433.9407653808593)">
    <g transform="translate(62.4517 394.5601)">
      <path d="M 0 0 C 12.402 -5.1 32.689 -9.337 45.548 -0.81 C 45.548 -0.81 55.216 -14.325 75.798 -0.06 C 75.798 -0.06 81.848 -9 97.633 -9.365 C 111.154 -9.678 116.582 -3.982 123.548 4.312 C 123.548 4.312 158.043 -21.877 182.798 -2.06 C 183.187 -1.75 183.568 -1.453 183.938 -1.167 C 184.929 -2.7 185.891 -4.397 186.812 -6.27 C 192.173 -17.165 167.132 -17.815 147.648 -17.125 C 147.648 -17.125 116.966 -32.502 95.242 -17.047 C 95.242 -17.047 56.195 -27.795 21.324 -12.135 C 21.324 -12.135 8.323 -17.69 -2.612 -12.135 C -8.636 -9.073 -6.206 -3.238 0 0" style="fill: rgb(104, 198, 250); fill-rule: evenodd; fill-opacity: 1;"/>
    </g>
  </g>
  <g style="clip-path: url(#clippath1);" transform="matrix(0.9999999999999999, 0, 0, -0.9999999999999999, 26.195892333984368, 433.9407653808593)">
    <g transform="translate(82.519 394.8975)">
      <path d="M 0 0 C -0.745 3.71 -4.666 26.777 12.765 27.797 C 31.724 28.91 38.919 19.33 38.919 19.33 C 38.919 19.33 29.673 41.165 58.599 30.343 C 58.599 30.343 62.152 61.518 102.665 60.413 C 130.744 59.647 134.94 36.51 134.871 22.38 C 131.497 30.208 122.314 46.515 102.731 52.103 C 76.589 59.563 62.093 18.083 62.093 18.083 C 41.701 29.542 41.481 11.603 41.481 11.603 C 17.339 25.042 3.981 -2.147 3.981 -2.147 Z" style="fill: rgb(211, 244, 255); fill-rule: evenodd; fill-opacity: 1;"/>
    </g>
  </g>
</svg>