<svg xmlns="http://www.w3.org/2000/svg" viewBox="0 0 519.19 199.93" width="519.1900024414062" height="199.92999267578125"><defs><style>.cls-1{fill:#f9b117;}.cls-2,.cls-20,.cls-28,.cls-29,.cls-30,.cls-9{fill:none;}.cls-2,.cls-29,.cls-30{stroke:#141414;}.cls-2,.cls-30{stroke-miterlimit:10;}.cls-2,.cls-29{stroke-width:2px;}.cls-17,.cls-3{fill:#0e394f;}.cls-4{fill:#faca3f;}.cls-5{fill:#f99f00;}.cls-6{fill:#2c6e9b;}.cls-18,.cls-7{fill:#0e3964;}.cls-7{opacity:0.3;}.cls-8{fill:#fbd766;}.cls-28,.cls-9{stroke:#fff;}.cls-28,.cls-29,.cls-9{stroke-linecap:round;stroke-linejoin:round;}.cls-9{stroke-width:2.8px;opacity:0.7;}.cls-10{fill:#f7b000;}.cls-11{fill:#e59303;opacity:0.5;}.cls-12{fill:#062538;}.cls-13{fill:#4cf58c;}.cls-14{fill:#185472;}.cls-15{fill:#ffcb6e;}.cls-16{fill:#f7b40d;}.cls-17{opacity:0.2;}.cls-19{fill:#19517f;}.cls-21{fill:#062c4c;}.cls-22{fill:#141414;}.cls-23{fill:#4d9ac4;}.cls-24{fill:#f95d5d;}.cls-25{fill:#033156;}.cls-26{fill:#fff;}.cls-27{fill:#f4f3f2;}.cls-30{stroke-width:1.3px;}</style></defs><title>Asset 4</title><g id="Layer_2" data-name="Layer 2"><g id="Layer_1-2" data-name="Layer 1"><polygon class="cls-1 svg-elem-1" points="80.67 40.05 66.89 33.44 69.24 21.41 74.15 22.37 72.54 30.6 82.84 35.54 80.67 40.05"></polygon><polygon class="cls-2 svg-elem-2" points="80.67 40.05 66.89 33.44 69.24 21.41 74.15 22.37 72.54 30.6 82.84 35.54 80.67 40.05"></polygon><circle class="cls-3 svg-elem-3" cx="71.7" cy="18.19" r="6.23"></circle><circle class="cls-2 svg-elem-4" cx="71.7" cy="18.19" r="6.23"></circle><path class="cls-4 svg-elem-5" d="M64.18,52.6a22,22,0,0,1,36.43-11.3L112.12,52l39.52,36.54-51.41,16-51.4,16L60.72,67.9Z"></path><path class="cls-5 svg-elem-6" d="M113.69,53.29l-50.9,15.8.78-3.45A49.73,49.73,0,0,0,78.8,60.2,47.08,47.08,0,0,0,98.57,40.05a22.44,22.44,0,0,1,4,3Z"></path><path class="cls-2 svg-elem-7" d="M360.46,179.64h21.06a24,24,0,0,0,17-7h0a24,24,0,0,1,33.94,0l4.5,4.5a24,24,0,0,0,17,7h32.56"></path><path class="cls-6 svg-elem-8" d="M510.68,174.86c-4.86-9.31-13.56-16.29-24.79-16.29A29.13,29.13,0,0,0,458,179.43a6.48,6.48,0,0,0,6.25,8.26h35.71l11.66-1"></path><path class="cls-7 svg-elem-9" d="M467.11,179.43a6.47,6.47,0,0,0,6.24,8.26h-9.14a6.48,6.48,0,0,1-6.25-8.26,29.13,29.13,0,0,1,27.93-20.86,28.79,28.79,0,0,1,4.58.36A29.15,29.15,0,0,0,467.11,179.43Z"></path><path class="cls-2 svg-elem-10" d="M511.7,183.56a24.65,24.65,0,0,0-16.37-23.42A29.13,29.13,0,0,0,458,179.34a6.5,6.5,0,0,0,6.22,8.35h43.37a4.12,4.12,0,0,0,4.12-4.13Z"></path><path class="cls-8 svg-elem-11" d="M75.43,139.53H93a0,0,0,0,1,0,0v33.36a8.8,8.8,0,0,1-8.8,8.8h0a8.8,8.8,0,0,1-8.8-8.8V139.53A0,0,0,0,1,75.43,139.53Z" transform="translate(-43.81 32.17) rotate(-17.23)"></path><path class="cls-8 svg-elem-12" d="M136.56,119.71h17.6a0,0,0,0,1,0,0v33.36a8.8,8.8,0,0,1-8.8,8.8h0a8.8,8.8,0,0,1-8.8-8.8V119.71A0,0,0,0,1,136.56,119.71Z" transform="translate(-35.19 49.39) rotate(-17.23)"></path><path class="cls-2 svg-elem-13" d="M75.43,139.53H93a0,0,0,0,1,0,0v33.36a8.8,8.8,0,0,1-8.8,8.8h0a8.8,8.8,0,0,1-8.8-8.8V139.53A0,0,0,0,1,75.43,139.53Z" transform="translate(-43.81 32.17) rotate(-17.23)"></path><path class="cls-2 svg-elem-14" d="M136.56,119.71h17.6a0,0,0,0,1,0,0v33.36a8.8,8.8,0,0,1-8.8,8.8h0a8.8,8.8,0,0,1-8.8-8.8V119.71A0,0,0,0,1,136.56,119.71Z" transform="translate(-35.19 49.39) rotate(-17.23)"></path><line class="cls-9 svg-elem-15" x1="75.85" y1="150.87" x2="79.16" y2="161.55"></line><path class="cls-4 svg-elem-16" d="M82,118.36h63.44a0,0,0,0,1,0,0v41a18,18,0,0,1-18,18H99.94a18,18,0,0,1-18-18v-41a0,0,0,0,1,0,0Z" transform="translate(-38.7 40.32) rotate(-17.23)"></path><rect class="cls-10 svg-elem-17" x="79.73" y="136.71" width="63.44" height="7.78" transform="translate(-36.65 39.33) rotate(-17.23)"></rect><path class="cls-2 svg-elem-18" d="M82,118.36h63.44a0,0,0,0,1,0,0v41a18,18,0,0,1-18,18H99.94a18,18,0,0,1-18-18v-41a0,0,0,0,1,0,0Z" transform="translate(-38.7 40.32) rotate(-17.23)"></path><path class="cls-2 svg-elem-19" d="M64.18,52.6a22,22,0,0,1,36.43-11.3L112.12,52l38.52,36.54-50.41,16-50.4,16L60.72,67.9Z"></path><rect class="cls-1 svg-elem-20" x="44.68" y="57.67" width="107.22" height="81.04" rx="13.06" transform="matrix(0.96, -0.3, 0.3, 0.96, -24.68, 33.53)"></rect><path class="cls-11 svg-elem-21" d="M156.39,104.53l1.24,4a13.06,13.06,0,0,1-8.6,16.34l-77.46,24a13.07,13.07,0,0,1-16.35-8.6l-1.24-4a13.06,13.06,0,0,0,16.34,8.6l77.47-24A13,13,0,0,0,156.39,104.53Z"></path><rect class="cls-3 svg-elem-22" x="51.84" y="64.62" width="92.9" height="67.12" rx="7.84" transform="matrix(0.96, -0.3, 0.3, 0.96, -24.68, 33.53)"></rect><path class="cls-12 svg-elem-23" d="M148.09,102l2.19,7a7.84,7.84,0,0,1-5.17,9.81L71.36,141.68a7.85,7.85,0,0,1-9.82-5.17l-2.18-7a7.84,7.84,0,0,0,9.81,5.16l73.76-22.88A7.83,7.83,0,0,0,148.09,102Z"></path><rect class="cls-13 svg-elem-24" x="83.96" y="91.14" width="6.14" height="18.83" rx="3.07" transform="translate(-25.89 30.3) rotate(-17.23)"></rect><rect class="cls-13 svg-elem-25" x="105.85" y="84.35" width="6.14" height="18.83" rx="3.07" transform="translate(-22.89 36.48) rotate(-17.23)"></rect><rect class="cls-14 svg-elem-26" x="56.81" y="76.3" width="5.16" height="15.47" rx="2.58" transform="translate(122.05 2.42) rotate(72.76)"></rect><circle class="cls-14 svg-elem-27" cx="71.03" cy="80.55" r="2.46"></circle><rect class="cls-15 svg-elem-28" x="54.89" y="67.92" width="20.12" height="3.61" rx="1.81" transform="translate(-17.74 22.37) rotate(-17.23)"></rect><circle class="cls-15 svg-elem-29" cx="77.3" cy="65.8" r="1.88"></circle><rect class="cls-16 svg-elem-30" x="76.73" y="47.12" width="11.42" height="2.28" rx="1.14" transform="translate(-10.6 26.59) rotate(-17.23)"></rect><rect class="cls-16 svg-elem-31" x="75.64" y="43.63" width="11.42" height="2.28" rx="1.14" transform="translate(-9.61 26.11) rotate(-17.23)"></rect><rect class="cls-16 svg-elem-32" x="107.85" y="156.6" width="17.47" height="3.49" rx="1.75" transform="translate(-41.68 41.66) rotate(-17.23)"></rect><rect class="cls-16 svg-elem-33" x="106.2" y="151.26" width="17.47" height="3.49" rx="1.75" transform="matrix(0.96, -0.3, 0.3, 0.96, -40.17, 40.92)"></rect><rect class="cls-2 svg-elem-34" x="44.68" y="57.67" width="107.22" height="81.04" rx="13.06" transform="matrix(0.96, -0.3, 0.3, 0.96, -24.68, 33.53)"></rect><path class="cls-17 svg-elem-35" d="M409,189.43c0,5.8-118.72,10.5-222,10.5S0,195.23,0,189.43s83.72-10.5,187-10.5S409,183.63,409,189.43Z"></path><path class="cls-17 svg-elem-36" d="M519.19,189.43c0,2.35-19,4.26-35.53,4.26s-29.93-1.91-29.93-4.26,13.4-4.26,29.93-4.26S519.19,187.08,519.19,189.43Z"></path><path class="cls-18 svg-elem-37" d="M372.76,1H167.35a6.17,6.17,0,0,0-6.07,5.11L137.44,162.73a6.16,6.16,0,0,0,6.07,7.2H356.77a6.15,6.15,0,0,0,6-5L387.44,18.77A15,15,0,0,0,372.76,1Z"></path><path class="cls-2 svg-elem-38" d="M372.76,1H167.35a6.17,6.17,0,0,0-6.07,5.11L137.44,162.73a6.16,6.16,0,0,0,6.07,7.2H356.77a6.15,6.15,0,0,0,6-5L387.44,18.77A15,15,0,0,0,372.76,1Z"></path><path class="cls-6 svg-elem-39" d="M373,1H158.76a9.42,9.42,0,0,0-9.29,7.83l-24.62,161.1H351L378.3,7.39A5.39,5.39,0,0,0,373,1Z"></path><path class="cls-2 svg-elem-40" d="M373,1H158.76a9.42,9.42,0,0,0-9.29,7.83l-24.62,161.1H351L378.3,7.39A5.39,5.39,0,0,0,373,1Z"></path><polygon class="cls-3 svg-elem-41" points="367.14 13 160.25 13 138.42 157.93 343.19 157.93 367.14 13"></polygon><polygon class="cls-12 svg-elem-42" points="367.73 13.22 366.6 19.22 159.8 19.22 160.83 13.22 367.73 13.22"></polygon><polygon class="cls-12 svg-elem-43" points="166.15 13 144.31 157.93 138.31 157.93 160.15 13 166.15 13"></polygon><polygon class="cls-13 svg-elem-44" points="189.67 29.07 178.55 29.07 177.13 33.28 189.12 33.28 189.67 29.07"></polygon><polygon class="cls-13 svg-elem-45" points="205.67 29.07 193.55 29.07 192.13 33.28 204.12 33.28 205.67 29.07"></polygon><polygon class="cls-13 svg-elem-46" points="219.67 29.07 208.55 29.07 208.13 33.28 218.12 33.28 219.67 29.07"></polygon><polygon class="cls-13 svg-elem-47" points="229.17 29.07 225.05 29.07 223.63 33.28 228.62 33.28 229.17 29.07"></polygon><polygon class="cls-13 svg-elem-48" points="175.17 29.07 171.05 29.07 169.63 33.28 174.21 33.42 175.17 29.07"></polygon><polygon class="cls-13 svg-elem-49" points="187.67 38.07 176.55 38.07 175.13 42.28 187.12 42.28 187.67 38.07"></polygon><polygon class="cls-13 svg-elem-50" points="202.67 38.07 191.55 38.07 190.13 42.28 202.12 42.28 202.67 38.07"></polygon><polygon class="cls-13 svg-elem-51" points="217.67 38.07 206.55 38.07 206.13 42.28 217.12 42.28 217.67 38.07"></polygon><polygon class="cls-13 svg-elem-52" points="226.17 38.07 222.05 38.07 220.63 42.28 225.62 42.28 226.17 38.07"></polygon><polygon class="cls-13 svg-elem-53" points="173.17 38.07 169.05 38.07 167.63 42.28 172.46 42.28 173.17 38.07"></polygon><path class="cls-19 svg-elem-54" d="M27.57,168.93H255.85a0,0,0,0,1,0,0v21a0,0,0,0,1,0,0H35.29A13.68,13.68,0,0,1,21.6,176.25V174.9A6,6,0,0,1,27.57,168.93Z"></path><path class="cls-7 svg-elem-55" d="M255.85,181.93v8H35.28A13.69,13.69,0,0,1,21.6,176.25V174.9a5.81,5.81,0,0,1,.6-2.6,13.73,13.73,0,0,0,13.08,9.63Z"></path><polygon class="cls-7 svg-elem-56" points="353.86 162.93 353.86 168.93 125.03 168.93 125.86 162.93 353.86 162.93"></polygon><path class="cls-18 svg-elem-57" d="M90.85,168.93h81a0,0,0,0,1,0,0v0a11,11,0,0,1-11,11h-59a11,11,0,0,1-11-11v0a0,0,0,0,1,0,0Z"></path><path class="cls-2 svg-elem-58" d="M90.85,168.93h81a0,0,0,0,1,0,0v0a11,11,0,0,1-11,11h-59a11,11,0,0,1-11-11v0a0,0,0,0,1,0,0Z"></path><polygon class="cls-12 svg-elem-59" points="367.05 13 343.1 157.93 138.37 157.93 364.24 13 367.05 13"></polygon><line class="cls-20 svg-elem-60" x1="372.36" y1="157.93" x2="367.85" y2="160.93"></line><rect class="cls-21 svg-elem-61" x="366.62" y="60.1" width="15.48" height="3.52" rx="1.76" transform="translate(493.08 -298.53) rotate(98.85)"></rect><rect class="cls-21 svg-elem-62" x="370.09" y="37.85" width="15.48" height="3.52" rx="1.76" transform="translate(475.09 -327.63) rotate(98.85)"></rect><rect class="cls-22 svg-elem-63" x="119.85" y="172.67" width="15.48" height="3.52" rx="1.76"></rect><rect class="cls-6 svg-elem-64" x="35.42" y="168.99" width="29.63" height="5.32" rx="2.66"></rect><circle class="cls-6 svg-elem-65" cx="69.99" cy="171.65" r="2.66"></circle><rect class="cls-23 svg-elem-66" x="125.61" y="99.72" width="29.63" height="5.32" rx="2.66" transform="translate(17.6 225.33) rotate(-81.12)"></rect><circle class="cls-23 svg-elem-67" cx="143.47" cy="82.87" r="2.66"></circle><rect class="cls-23 svg-elem-68" x="162.42" y="3.99" width="29.63" height="5.32" rx="2.66"></rect><circle class="cls-23 svg-elem-69" cx="196.99" cy="6.65" r="2.66"></circle><circle class="cls-24 svg-elem-70" cx="245.85" cy="6.93" r="3"></circle><rect class="cls-25 svg-elem-71" x="71.57" y="163.93" width="23" height="5"></rect><rect class="cls-25 svg-elem-72" x="36.85" y="163.93" width="23" height="5"></rect><rect class="cls-25 svg-elem-73" x="106.28" y="163.93" width="23" height="5"></rect><rect class="cls-25 svg-elem-74" x="141" y="163.93" width="23" height="5"></rect><rect class="cls-25 svg-elem-75" x="175.71" y="163.93" width="23" height="5"></rect><rect class="cls-25 svg-elem-76" x="210.43" y="163.93" width="23" height="5"></rect><rect class="cls-25 svg-elem-77" x="245.14" y="163.93" width="23" height="5"></rect><rect class="cls-25 svg-elem-78" x="314.85" y="163.93" width="23" height="5"></rect><rect class="cls-25 svg-elem-79" x="279.99" y="164.08" width="23" height="5"></rect><rect class="cls-2 svg-elem-80" x="71.57" y="163.93" width="23" height="5"></rect><rect class="cls-2 svg-elem-81" x="36.85" y="163.93" width="23" height="5"></rect><rect class="cls-2 svg-elem-82" x="106.28" y="163.93" width="23" height="5"></rect><rect class="cls-2 svg-elem-83" x="141" y="163.93" width="23" height="5"></rect><rect class="cls-2 svg-elem-84" x="175.71" y="163.93" width="23" height="5"></rect><rect class="cls-2 svg-elem-85" x="210.43" y="163.93" width="23" height="5"></rect><rect class="cls-2 svg-elem-86" x="245.14" y="163.93" width="23" height="5"></rect><rect class="cls-2 svg-elem-87" x="314.85" y="163.93" width="23" height="5"></rect><rect class="cls-2 svg-elem-88" x="279.99" y="164.08" width="23" height="5"></rect><polygon class="cls-2 svg-elem-89" points="367.04 13 160.15 13 138.32 157.93 343.09 157.93 367.04 13"></polygon><path class="cls-26 svg-elem-90" d="M338.69,29.57h-86a8.52,8.52,0,0,0-8.44,7.26l-8.35,55.4a8.53,8.53,0,0,0,8.44,9.8h85.23A8.53,8.53,0,0,0,338,94.89l9.16-55.4A8.53,8.53,0,0,0,338.69,29.57Z"></path><path class="cls-27 svg-elem-91" d="M347,39.5l-9.15,55.39a8.54,8.54,0,0,1-8.42,7.14H244.21a8.55,8.55,0,0,1-8.35-6.72L338.32,29.57h.27A8.54,8.54,0,0,1,347,39.5Z"></path><path class="cls-2 svg-elem-92" d="M27.57,168.93H255.85a0,0,0,0,1,0,0v21a0,0,0,0,1,0,0H35.29A13.68,13.68,0,0,1,21.6,176.25V174.9A6,6,0,0,1,27.57,168.93Z"></path><rect class="cls-18 svg-elem-93" x="234.85" y="168.93" width="137" height="21" rx="10.5"></rect><rect class="cls-22 svg-elem-94" x="344.37" y="177.67" width="15.48" height="3.52" rx="1.76"></rect><rect class="cls-22 svg-elem-95" x="321.85" y="177.67" width="15.48" height="3.52" rx="1.76"></rect><rect class="cls-2 svg-elem-96" x="234.85" y="168.93" width="137" height="21" rx="10.5"></rect><line class="cls-28 svg-elem-97" x1="65.39" y1="59.19" x2="66.26" y2="54.76"></line><circle class="cls-26 svg-elem-98" cx="66.54" cy="53.08" r="0.64"></circle><path class="cls-29 svg-elem-99" d="M108,60.05l17.26-5.36A7.85,7.85,0,0,1,135,59.86l4.2,13.56"></path><line class="cls-29 svg-elem-100" x1="89.42" y1="65.8" x2="100.85" y2="62.25"></line><path class="cls-29 svg-elem-101" d="M131.35,123.07l-60,18.61a7.85,7.85,0,0,1-9.82-5.17L46.3,87.39a7.85,7.85,0,0,1,5.17-9.82l31.89-9.89"></path><polygon class="cls-8 svg-elem-102" points="265.39 76.4 254.27 76.4 252.85 80.62 264.84 80.62 265.39 76.4"></polygon><polygon class="cls-8 svg-elem-103" points="281.39 76.4 269.27 76.4 267.86 80.62 279.84 80.62 281.39 76.4"></polygon><polygon class="cls-8 svg-elem-104" points="295.39 76.4 284.27 76.4 283.86 80.62 293.84 80.62 295.39 76.4"></polygon><polygon class="cls-8 svg-elem-105" points="304.89 76.4 300.77 76.4 299.36 80.62 304.34 80.62 304.89 76.4"></polygon><polygon class="cls-8 svg-elem-106" points="250.89 76.4 246.77 76.4 245.35 80.62 249.93 80.75 250.89 76.4"></polygon><polygon class="cls-8 svg-elem-107" points="263.39 85.4 252.27 85.4 250.85 89.62 262.84 89.62 263.39 85.4"></polygon><polygon class="cls-8 svg-elem-108" points="278.39 85.4 267.27 85.4 265.86 89.62 277.84 89.62 278.39 85.4"></polygon><polygon class="cls-8 svg-elem-109" points="293.39 85.4 282.27 85.4 281.86 89.62 292.84 89.62 293.39 85.4"></polygon><polygon class="cls-8 svg-elem-110" points="301.89 85.4 297.77 85.4 296.36 89.62 301.34 89.62 301.89 85.4"></polygon><polygon class="cls-8 svg-elem-111" points="248.89 85.4 244.77 85.4 243.35 89.62 248.18 89.62 248.89 85.4"></polygon><path class="cls-30 svg-elem-112" d="M338.69,29.57h-86a8.52,8.52,0,0,0-8.44,7.26l-8.35,55.4a8.53,8.53,0,0,0,8.44,9.8h85.23A8.53,8.53,0,0,0,338,94.89l9.16-55.4A8.53,8.53,0,0,0,338.69,29.57Z"></path></g></g></svg>